HIERARCHY
ROOT Hips
{
 OFFSET 0.000000 0.000000 0.000000
 CHANNELS 6 Xposition Yposition Zposition Yrotation Xrotation Zrotation
 JOINT Chest
 {
  OFFSET 0.000000 9.588913 -0.003946
  CHANNELS 3 Yrotation Xrotation Zrotation
  JOINT Chest2
  {
   OFFSET 0.000000 9.541882 0.008053
   CHANNELS 3 Yrotation Xrotation Zrotation
   JOINT Chest3
   {
    OFFSET 0.000000 9.501360 0.000000
    CHANNELS 3 Yrotation Xrotation Zrotation
    JOINT Chest4
    {
     OFFSET 0.000000 9.491660 0.000000
     CHANNELS 3 Yrotation Xrotation Zrotation
     JOINT Neck
     {
      OFFSET 0.000000 14.331917 0.000000
      CHANNELS 3 Yrotation Xrotation Zrotation
      JOINT Head
      {
       OFFSET 0.000000 8.884799 0.017034
       CHANNELS 3 Yrotation Xrotation Zrotation
       End Site
       {
        OFFSET 0.000000 16.896195 0.008993
       }
      }
     }
     JOINT RightCollar
     {
      OFFSET -2.923010 9.499495 0.000000
      CHANNELS 3 Yrotation Xrotation Zrotation
      JOINT RightShoulder
      {
       OFFSET -13.795216 0.000000 0.000000
       CHANNELS 3 Yrotation Xrotation Zrotation
       JOINT RightElbow
       {
        OFFSET -30.272209 0.000000 0.000000
        CHANNELS 3 Yrotation Xrotation Zrotation
        JOINT RightWrist
        {
         OFFSET -24.478199 0.000000 0.000000
         CHANNELS 3 Yrotation Xrotation Zrotation
         End Site
         {
          OFFSET -18.090752 0.000000 0.000000
         }
        }
       }
      }
     }
     JOINT LeftCollar
     {
      OFFSET 2.923010 9.499495 0.000000
      CHANNELS 3 Yrotation Xrotation Zrotation
      JOINT LeftShoulder
      {
       OFFSET 13.795216 0.000000 0.000000
       CHANNELS 3 Yrotation Xrotation Zrotation
       JOINT LeftElbow
       {
        OFFSET 30.272209 0.000000 0.000000
        CHANNELS 3 Yrotation Xrotation Zrotation
        JOINT LeftWrist
        {
         OFFSET 24.478199 0.000000 0.000000
         CHANNELS 3 Yrotation Xrotation Zrotation
         End Site
         {
          OFFSET 18.090752 0.000000 0.000000
         }
        }
       }
      }
     }
    }
   }
  }
 }
 JOINT RightHip
 {
  OFFSET -7.826875 0.019532 0.001973
  CHANNELS 3 Yrotation Xrotation Zrotation
  JOINT RightKnee
  {
   OFFSET 0.000000 -40.546152 -0.001885
   CHANNELS 3 Yrotation Xrotation Zrotation
   JOINT RightAnkle
   {
    OFFSET 0.000000 -39.417092 -0.003189
    CHANNELS 3 Yrotation Xrotation Zrotation
    JOINT RightToe
    {
     OFFSET 0.000000 -7.579396 17.243563
     CHANNELS 3 Yrotation Xrotation Zrotation
     End Site
     {
      OFFSET 0.000000 -1.500329 6.694466
     }
    }
   }
  }
 }
 JOINT LeftHip
 {
  OFFSET 7.826875 0.019532 0.001973
  CHANNELS 3 Yrotation Xrotation Zrotation
  JOINT LeftKnee
  {
   OFFSET 0.000000 -40.546152 -0.001885
   CHANNELS 3 Yrotation Xrotation Zrotation
   JOINT LeftAnkle
   {
    OFFSET 0.000000 -39.417092 -0.003189
    CHANNELS 3 Yrotation Xrotation Zrotation
    JOINT LeftToe
    {
     OFFSET 0.000000 -7.579396 17.243563
     CHANNELS 3 Yrotation Xrotation Zrotation
     End Site
     {
      OFFSET 0.000000 -1.500329 6.694466
     }
    }
   }
  }
 }
}
MOTION
Frames: 16
Frame Time: 0.008333
6.973711 39.448437 3.363771 -54.816760 -15.540245 2.863441 13.177189 24.849400 1.645062 7.016910 14.098212 -0.242191 8.830344 17.619016 -0.022470 7.016910 14.098214 -0.242191 36.952962 20.301516 -2.756698 51.232665 3.282857 -12.084689 -0.589045 -7.495459 -11.289087 7.798180 -39.359406 73.978864 32.867913 -7.755664 1.260103 -4.113888 -2.103119 -12.294827 -24.348457 -17.470091 10.553442 -28.705634 -60.040285 -82.743690 -7.725999 13.274956 -12.783701 12.944879 1.605662 13.956309 21.253862 -63.258009 -33.241169 167.759206 46.684451 -178.535659 11.391935 -45.286980 -10.569703 -0.053368 0.377455 -0.021062 5.199346 -65.854461 10.846350 152.908662 41.905887 173.543836 16.829431 -36.575228 -27.182576 0.044340 -1.483541 -0.021997
6.985688 39.461584 3.377206 -54.878218 -15.545255 2.847442 13.173410 24.856448 1.640377 7.009354 14.096172 -0.244386 8.820717 17.616522 -0.025582 7.009354 14.096173 -0.244386 36.935616 20.319769 -2.772957 51.206174 3.305619 -12.100027 -0.565032 -7.504660 -11.298263 7.827946 -39.386002 73.982300 32.790889 -7.801746 1.239483 -4.118638 -2.113678 -12.299610 -24.357824 -17.464698 10.545171 -28.619768 -59.981286 -82.746542 -7.756468 13.301580 -12.818998 12.838919 1.569819 13.964521 21.224657 -63.255557 -33.191374 167.762104 46.715682 -178.549527 11.426016 -45.271499 -10.572527 -0.052953 0.378449 -0.027498 5.257019 -65.815108 10.826288 152.873073 41.909358 173.522782 16.863647 -36.593745 -27.202629 0.047322 -1.479045 -0.021333
6.997100 39.473884 3.391253 -54.936335 -15.550381 2.827633 13.171147 24.864109 1.636130 7.002238 14.093412 -0.246402 8.811646 17.613124 -0.028466 7.002237 14.093413 -0.246401 36.917893 20.333705 -2.787720 51.178847 3.321829 -12.114032 -0.549384 -7.511642 -11.295176 7.880482 -39.407400 73.977615 32.733378 -7.871226 1.204318 -4.119860 -2.137076 -12.294373 -24.368292 -17.459711 10.545384 -28.573920 -59.919545 -82.708189 -7.788725 13.309620 -12.862147 12.705779 1.534112 13.971663 21.196605 -63.247585 -33.153000 167.759065 46.746592 -178.565133 11.483762 -45.257109 -10.581973 -0.052444 0.380720 -0.038693 5.285017 -65.776229 10.832444 152.843645 41.909704 173.502120 16.893969 -36.611837 -27.226612 0.048245 -1.477175 -0.017509
7.003941 39.486997 3.408852 -55.020655 -15.584741 2.812763 13.196792 24.899091 1.638283 6.995769 14.090081 -0.247974 8.803402 17.609004 -0.030778 6.995769 14.090082 -0.247974 36.899506 20.346567 -2.802043 51.150274 3.336156 -12.127505 -0.547451 -7.515754 -11.279499 7.947707 -39.425134 73.970772 32.694764 -7.950132 1.163137 -4.116278 -2.161162 -12.281492 -24.376906 -17.448941 10.547911 -28.564242 -59.856728 -82.631813 -7.824240 13.297633 -12.908878 12.561900 1.496811 13.972688 21.195685 -63.198842 -33.121819 167.727958 46.775583 -178.586610 11.551270 -45.241891 -10.598649 -0.052947 0.380040 -0.051923 5.322265 -65.708980 10.854576 152.820455 41.906818 173.484454 16.928059 -36.605060 -27.243685 0.031204 -1.499106 -0.021331
7.013232 39.498988 3.425400 -55.081792 -15.598838 2.791736 13.195581 24.909264 1.632681 6.989335 14.087365 -0.248468 8.795251 17.605632 -0.031717 6.989335 14.087366 -0.248467 36.879038 20.362834 -2.819352 51.118831 3.355189 -12.143991 -0.558550 -7.523519 -11.259828 8.015218 -39.441284 73.972615 32.664901 -8.018245 1.123814 -4.102212 -2.182728 -12.263149 -24.382896 -17.430697 10.549300 -28.574054 -59.799402 -82.530146 -7.856172 13.271415 -12.953706 12.415359 1.452111 13.968886 21.224136 -63.161547 -33.144796 167.663124 46.802533 -178.614586 11.605423 -45.222733 -10.614990 -0.054560 0.376369 -0.063614 5.353757 -65.663814 10.864692 152.809352 41.903098 173.475556 16.969539 -36.620636 -27.257092 0.022976 -1.504729 -0.024654
7.021218 39.511408 3.442770 -55.142572 -15.618082 2.767873 13.193597 24.920191 1.631859 6.981196 14.085972 -0.246961 8.785045 17.603876 -0.030176 6.981196 14.085974 -0.246960 36.855268 20.385713 -2.842977 51.083332 3.383818 -12.167160 -0.573535 -7.536641 -11.247628 8.067646 -39.463764 73.988897 32.635179 -8.054627 1.093957 -4.084728 -2.204579 -12.245516 -24.387035 -17.409813 10.547975 -28.597367 -59.749543 -82.410876 -7.878062 13.235549 -12.989079 12.272636 1.397051 13.963218 21.258250 -63.117829 -33.171731 167.576941 46.827231 -178.650809 11.645407 -45.197704 -10.632615 -0.056483 0.367487 -0.070676 5.385792 -65.612188 10.879497 152.812312 41.901207 173.475948 17.023157 -36.641738 -27.266289 0.019989 -1.506405 -0.030256
7.028559 39.524416 3.460736 -55.200547 -15.639519 2.742612 13.186090 24.930475 1.634378 6.970119 14.085494 -0.243876 8.771209 17.603239 -0.026748 6.970119 14.085497 -0.243875 36.829467 20.413852 -2.873104 51.046255 3.420748 -12.197723 -0.584127 -7.550114 -11.244970 8.104940 -39.496809 74.012504 32.606964 -8.046012 1.076674 -4.077328 -2.223689 -12.234170 -24.386011 -17.393252 10.538426 -28.629325 -59.699874 -82.282463 -7.891747 13.198396 -13.011725 12.148911 1.335249 13.951499 21.279223 -63.076102 -33.190632 167.487689 46.850320 -178.694004 11.686851 -45.166350 -10.658817 -0.057094 0.355918 -0.072909 5.417949 -65.555458 10.895662 152.812508 41.901652 173.472758 17.077407 -36.670303 -27.273408 0.022010 -1.501008 -0.036126
7.036072 39.538006 3.479136 -55.259445 -15.659411 2.719795 13.171578 24.939645 1.636554 6.956472 14.085359 -0.241115 8.754126 17.603043 -0.023824 6.956472 14.085363 -0.241115 36.804090 20.441374 -2.907339 51.011619 3.458180 -12.233942 -0.587080 -7.562146 -11.246517 8.138552 -39.532747 74.031034 32.587823 -7.994187 1.067201 -4.086154 -2.234568 -12.228927 -24.378603 -17.386679 10.521209 -28.649554 -59.641549 -82.168700 -7.902123 13.163694 -13.020754 12.065088 1.282838 13.931045 21.286363 -63.043249 -33.198952 167.414713 46.872349 -178.735131 11.733826 -45.130114 -10.687134 -0.055567 0.344181 -0.073740 5.467046 -65.498025 10.899128 152.790907 41.902841 173.457407 17.114573 -36.703905 -27.278618 0.026460 -1.492801 -0.040054
7.043294 39.552267 3.497712 -55.327017 -15.679799 2.699323 13.159380 24.951073 1.639874 6.942108 14.085013 -0.239267 8.736102 17.602600 -0.022081 6.942108 14.085017 -0.239266 36.780084 20.463152 -2.941725 50.980045 3.488276 -12.271583 -0.582830 -7.572621 -11.249442 8.171378 -39.561553 74.039184 32.585538 -7.915131 1.066104 -4.112524 -2.234692 -12.229354 -24.369123 -17.389313 10.504452 -28.632069 -59.573769 -82.095862 -7.915586 13.128712 -13.020557 12.033267 1.257269 13.907428 21.277760 -63.019307 -33.182133 167.365284 46.894623 -178.769388 11.775582 -45.092030 -10.704423 -0.052753 0.333529 -0.076277 5.530030 -65.440325 10.897891 152.749090 41.901005 173.432403 17.135178 -36.731592 -27.289108 0.032648 -1.490453 -0.038709
7.046127 39.568470 3.518747 -55.431093 -15.729119 2.686627 13.180684 24.991424 1.651705 6.929357 14.084146 -0.237551 8.720099 17.601505 -0.020453 6.929357 14.084149 -0.237551 36.755898 20.478186 -2.972338 50.947329 3.507888 -12.305289 -0.575488 -7.584247 -11.250957 8.206960 -39.575385 74.032530 32.601391 -7.830932 1.079385 -4.153335 -2.221740 -12.237220 -24.366737 -17.396405 10.493025 -28.556904 -59.496811 -82.074190 -7.939780 13.092967 -13.017809 12.052077 1.264110 13.881037 21.254621 -62.973599 -33.110515 167.330408 46.918019 -178.802538 11.806760 -45.056032 -10.709689 -0.050519 0.324126 -0.080376 5.607593 -65.355132 10.912592 152.706126 41.895343 173.407683 17.155569 -36.720668 -27.303295 0.025195 -1.518001 -0.038771
7.052619 39.583805 3.536375 -55.509405 -15.748681 2.663716 13.175179 25.000097 1.656238 6.919268 14.082150 -0.234962 8.707473 17.598979 -0.017641 6.919267 14.082152 -0.234962 36.729253 20.487105 -2.997323 50.908623 3.516412 -12.332054 -0.570962 -7.603181 -11.247216 8.251340 -39.570412 74.010398 32.631794 -7.754240 1.109490 -4.204112 -2.197416 -12.253367 -24.381888 -17.403457 10.488153 -28.420674 -59.405380 -82.098442 -7.979734 13.051726 -13.011349 12.112280 1.299679 13.850930 21.214880 -62.962066 -33.044185 167.302840 46.944165 -178.833849 11.830646 -45.021157 -10.708716 -0.049619 0.318776 -0.084034 5.648058 -65.304918 10.933226 152.674420 41.887618 173.391969 17.176232 -36.716688 -27.321430 0.025248 -1.535476 -0.035342
7.059095 39.599491 3.552393 -55.585632 -15.762631 2.633577 13.169529 25.003072 1.661890 6.911106 14.079233 -0.231070 8.697320 17.595275 -0.013131 6.911106 14.079236 -0.231070 36.699267 20.491294 -3.019652 50.863377 3.516251 -12.355434 -0.572664 -7.635993 -11.240434 8.309662 -39.551306 73.980102 32.666382 -7.689284 1.153088 -4.256019 -2.170823 -12.271961 -24.414154 -17.407375 10.490892 -28.235025 -59.298336 -82.158116 -8.038877 12.997342 -12.999787 12.195627 1.351348 13.826288 21.157245 -62.959898 -32.957292 167.282101 46.972978 -178.861032 11.850308 -44.986570 -10.706479 -0.049719 0.314831 -0.085527 5.673239 -65.263752 10.962900 152.647222 41.880102 173.382407 17.202387 -36.704286 -27.336328 0.023865 -1.554217 -0.037221
7.065722 39.615763 3.566955 -55.661293 -15.770602 2.597784 13.159070 25.001537 1.667511 6.902953 14.076792 -0.226575 8.687206 17.592154 -0.007850 6.902953 14.076795 -0.226575 36.666995 20.494804 -3.044600 50.815149 3.514959 -12.381970 -0.577667 -7.680394 -11.238187 8.386127 -39.535205 73.947774 32.689331 -7.644746 1.204710 -4.294000 -2.148123 -12.285441 -24.450837 -17.410339 10.499510 -28.013498 -59.181731 -82.241886 -8.117056 12.923246 -12.986920 12.280341 1.405305 13.812659 21.081238 -62.968919 -32.849054 167.270123 47.004710 -178.887303 11.872071 -44.950758 -10.707231 -0.049412 0.312284 -0.084389 5.706367 -65.225984 10.985582 152.614996 41.877327 173.372743 17.238437 -36.699345 -27.346594 0.025498 -1.561816 -0.045680
7.072849 39.633158 3.581463 -55.738202 -15.775736 2.564181 13.140004 24.997413 1.670296 6.892288 14.074932 -0.222606 8.673911 17.589774 -0.003320 6.892287 14.074936 -0.222605 36.634882 20.501928 -3.072031 50.767871 3.519448 -12.411229 -0.580136 -7.722094 -11.243628 8.471010 -39.542069 73.919414 32.692763 -7.627589 1.264460 -4.313375 -2.127967 -12.288303 -24.476843 -17.412217 10.507997 -27.782495 -59.060127 -82.329843 -8.209982 12.819139 -12.975708 12.349213 1.453339 13.810296 21.008123 -62.981567 -32.742736 167.266608 47.037911 -178.911757 11.902551 -44.912377 -10.710107 -0.048803 0.309757 -0.082828 5.775012 -65.181033 10.975945 152.574110 41.882454 173.360083 17.288029 -36.713222 -27.352980 0.030467 -1.553477 -0.059849
7.080527 39.652264 3.597199 -55.818230 -15.782308 2.538328 13.113870 24.992350 1.669926 6.877261 14.072950 -0.219959 8.655069 17.587275 -0.000633 6.877261 14.072956 -0.219958 36.604374 20.513864 -3.099034 50.722884 3.531135 -12.439410 -0.576573 -7.752927 -11.253284 8.555721 -39.575539 73.898654 32.678447 -7.637968 1.327506 -4.318310 -2.111853 -12.272462 -24.485014 -17.409880 10.509585 -27.558866 -58.934694 -82.411406 -8.311944 12.683979 -12.966948 12.389534 1.490796 13.822146 20.964764 -62.986651 -32.665784 167.263972 47.071010 -178.931186 11.941584 -44.869297 -10.712539 -0.048894 0.304306 -0.082427 5.893397 -65.121530 10.918068 152.520161 41.894816 173.343018 17.352885 -36.743799 -27.367763 0.038865 -1.533825 -0.072211
7.088977 39.673301 3.614126 -55.898411 -15.789300 2.517922 13.080517 24.986243 1.668017 6.857385 14.070672 -0.218552 8.630064 17.584437 0.000292 6.857384 14.070679 -0.218550 36.574477 20.528862 -3.125654 50.678594 3.547200 -12.466678 -0.565403 -7.778236 -11.265393 8.645398 -39.626475 73.884888 32.651560 -7.672964 1.379039 -4.314765 -2.105596 -12.237993 -24.477829 -17.406314 10.498159 -27.324879 -58.808699 -82.498901 -8.414118 12.534705 -12.962883 12.396707 1.516513 13.850834 20.957686 -62.981934 -32.627454 167.250397 47.104618 -178.950463 11.990557 -44.819731 -10.718678 -0.049974 0.295614 -0.082083 6.041288 -65.050991 10.825235 152.443561 41.911529 173.315472 17.422759 -36.780787 -27.407164 0.052137 -1.509864 -0.072446
